HIERARCHY
ROOT joint_Root
{
	OFFSET 0.0 0.0 0.0
	CHANNELS 6 Xposition Yposition Zposition Zrotation Xrotation Yrotation 
	JOINT Hips
	{
		OFFSET 4.5925 91.4895 -427.239
		CHANNELS 6 Xposition Yposition Zposition Zrotation Xrotation Yrotation 
		JOINT Spine
		{
			OFFSET 15.7357 0.0 0.0
			CHANNELS 6 Xposition Yposition Zposition Zrotation Xrotation Yrotation 
			JOINT Chest
			{
				OFFSET 8.98455 -0.406207 0.0
				CHANNELS 6 Xposition Yposition Zposition Zrotation Xrotation Yrotation 
				JOINT Neck
				{
					OFFSET 16.3773 0.0 0.0
					CHANNELS 6 Xposition Yposition Zposition Zrotation Xrotation Yrotation 
					JOINT Head
					{
						OFFSET 6.45672 0.0 0.0
						CHANNELS 6 Xposition Yposition Zposition Zrotation Xrotation Yrotation 
						End Site
						{
							OFFSET 0.0 0.0 0.0
						}
					}
				}
				JOINT Shoulder_L
				{
					OFFSET 12.9942 -0.242716 4.98039
					CHANNELS 6 Xposition Yposition Zposition Zrotation Xrotation Yrotation 
					JOINT UpperArm_L
					{
						OFFSET 5.34809 0.0 0.0
						CHANNELS 6 Xposition Yposition Zposition Zrotation Xrotation Yrotation 
						JOINT LowerArm_L
						{
							OFFSET 24.3286 1.87007e-05 0.0
							CHANNELS 6 Xposition Yposition Zposition Zrotation Xrotation Yrotation 
							JOINT Hand_L
							{
								OFFSET 22.2916 0.0 0.0
								CHANNELS 6 Xposition Yposition Zposition Zrotation Xrotation Yrotation 
								End Site
								{
									OFFSET 0.0 0.0 0.0
								}
							}
						}
					}
				}
				JOINT Shoulder_R
				{
					OFFSET 12.9945 -0.242716 -4.98039
					CHANNELS 6 Xposition Yposition Zposition Zrotation Xrotation Yrotation 
					JOINT UpperArm_R
					{
						OFFSET -5.34813 0.0 0.0
						CHANNELS 6 Xposition Yposition Zposition Zrotation Xrotation Yrotation 
						JOINT LowerArm_R
						{
							OFFSET -24.3289 0.000322201 0.0
							CHANNELS 6 Xposition Yposition Zposition Zrotation Xrotation Yrotation 
							JOINT Hand_R
							{
								OFFSET -22.2915 -0.000108084 0.0
								CHANNELS 6 Xposition Yposition Zposition Zrotation Xrotation Yrotation 
								End Site
								{
									OFFSET 0.0 0.0 0.0
								}
							}
						}
					}
				}
			}
		}
		JOINT UpperLeg_L
		{
			OFFSET -2.19248 -6.46944 0.0
			CHANNELS 6 Xposition Yposition Zposition Zrotation Xrotation Yrotation 
			JOINT LowerLeg_L
			{
				OFFSET 39.0811 0.0 -1.23785e-05
				CHANNELS 6 Xposition Yposition Zposition Zrotation Xrotation Yrotation 
				JOINT Foot_L
				{
					OFFSET 40.9854 0.0 -1.26872e-05
					CHANNELS 6 Xposition Yposition Zposition Zrotation Xrotation Yrotation 
					JOINT Toes_L
					{
						OFFSET 11.7543 0.0 0.0
						CHANNELS 6 Xposition Yposition Zposition Zrotation Xrotation Yrotation 
						End Site
						{
							OFFSET 0.0 0.0 0.0
						}
					}
				}
			}
		}
		JOINT UpperLeg_R
		{
			OFFSET -2.19251 6.46944 0.0
			CHANNELS 6 Xposition Yposition Zposition Zrotation Xrotation Yrotation 
			JOINT LowerLeg_R
			{
				OFFSET -39.0811 -0.00228153 -0.0401928
				CHANNELS 6 Xposition Yposition Zposition Zrotation Xrotation Yrotation 
				JOINT Foot_R
				{
					OFFSET -40.9854 0.0 0.0
					CHANNELS 6 Xposition Yposition Zposition Zrotation Xrotation Yrotation 
					JOINT Toes_R
					{
						OFFSET -11.7543 0.0 0.0
						CHANNELS 6 Xposition Yposition Zposition Zrotation Xrotation Yrotation 
						End Site
						{
							OFFSET 0.0 0.0 0.0
						}
					}
				}
			}
		}
	}
}
MOTION
Frames:	9
Frame Time:	0.0333333
0.000000 0.000000 0.000000 0.000000 0.000000 -0.000000 -1.002320 90.199500 -3.768370 89.252100 -2.521650 12.014600 15.735700 0.000005 -0.000001 88.349400 77.299100 -88.429800 8.984550 -0.406207 -0.000000 17.625700 -0.725656 -0.048669 16.377300 -0.000001 -0.000001 3.424200 -2.723200 2.176250 6.456720 -0.000001 -0.000000 -5.291460 -1.727780 1.212510 12.994200 -0.242716 4.980390 -90.974100 4.791410 -78.494000 5.348090 -0.000007 -0.000001 -50.620900 43.528500 -34.072600 24.328600 0.000019 0.000005 6.085010 16.296800 -20.801600 22.291600 -0.000001 0.000005 10.153300 5.253320 1.344910 12.994500 -0.242716 -4.980390 89.362200 10.010200 -86.335700 -5.348130 -0.000001 -0.000004 -58.626300 31.110500 -23.357900 -24.328900 0.000322 -0.000009 2.270030 5.263040 -23.381200 -22.291500 -0.000108 -0.000004 15.975100 5.377610 -2.223260 -2.192480 -6.469440 -0.000000 -173.953000 -11.153800 -2.771880 39.081100 -0.000007 -0.000012 -0.194045 0.277934 34.921900 40.985400 -0.000006 -0.000013 -0.364673 4.399260 -69.825600 11.754300 -0.000000 0.000003 -0.000113 -0.001143 -16.621300 -2.192510 6.469440 -0.000001 175.196000 18.708600 178.405000 -39.081100 -0.002282 -0.040193 -0.118310 0.177406 34.428600 -40.985400 0.000008 0.000006 5.228760 11.808000 -70.994700 -11.754300 -0.000006 -0.000006 -0.002811 -0.038443 -18.136500
0.000000 0.000000 0.000000 0.000000 0.000000 -0.000000 -0.992667 90.198700 -3.773640 89.265100 -2.549560 12.014400 15.735700 0.000005 -0.000001 88.269200 77.279000 -88.371100 8.984550 -0.406207 -0.000000 17.664800 -0.763571 -0.085444 16.377300 -0.000001 -0.000001 3.362880 -2.659420 2.129370 6.456720 -0.000001 -0.000000 -5.270590 -1.610970 1.163190 12.994200 -0.242716 4.980390 -90.986200 4.821270 -78.425000 5.348090 -0.000007 -0.000001 -50.531700 43.514600 -34.097300 24.328600 0.000019 0.000005 6.122400 16.290400 -20.926600 22.291600 -0.000001 0.000005 10.204200 5.252540 1.365540 12.994500 -0.242716 -4.980390 89.329900 10.016100 -86.152500 -5.348130 -0.000001 -0.000004 -59.121700 29.762800 -23.211600 -24.328900 0.000322 -0.000009 2.366500 5.223760 -24.423900 -22.291500 -0.000108 -0.000004 16.203200 5.383860 -2.420070 -2.192480 -6.469440 -0.000000 -173.969000 -11.138000 -2.765730 39.081100 -0.000007 -0.000012 -0.194934 0.279255 34.917300 40.985400 -0.000006 -0.000013 -0.365852 4.395550 -69.828800 11.754300 -0.000000 0.000003 -0.000108 -0.001101 -16.619700 -2.192510 6.469440 -0.000001 175.175000 18.702300 178.388000 -39.081100 -0.002282 -0.040193 -0.121841 0.182463 34.442400 -40.985400 0.000008 0.000006 5.226920 11.822300 -70.991400 -11.754300 -0.000006 -0.000006 -0.002687 -0.037011 -18.078200
0.000000 0.000000 0.000000 0.000000 0.000000 -0.000000 -0.992643 90.195300 -3.780780 89.240400 -2.590610 11.996300 15.735700 0.000005 -0.000001 88.231800 77.272600 -88.341100 8.984550 -0.406207 -0.000000 17.677000 -0.780903 -0.097600 16.377300 -0.000001 -0.000001 3.347690 -2.596940 2.093940 6.456720 -0.000001 -0.000000 -5.269540 -1.489670 1.077660 12.994200 -0.242716 4.980390 -91.001500 4.880240 -78.388500 5.348090 -0.000007 -0.000001 -50.472900 43.449400 -34.097000 24.328600 0.000019 0.000005 6.142110 16.314200 -20.961400 22.291600 -0.000001 0.000005 10.169100 5.250170 1.428230 12.994500 -0.242716 -4.980390 89.290000 10.036500 -85.932800 -5.348130 -0.000001 -0.000004 -59.484700 28.329100 -23.051800 -24.328900 0.000322 -0.000009 2.260110 4.627000 -26.081400 -22.291500 -0.000108 -0.000004 16.635700 5.386640 -2.508220 -2.192480 -6.469440 -0.000000 -173.939000 -11.184900 -2.800280 39.081100 -0.000007 -0.000012 -0.195603 0.279883 34.949100 40.985400 -0.000006 -0.000013 -0.363181 4.393920 -69.839100 11.754300 -0.000000 0.000003 -0.000121 -0.001212 -16.623800 -2.192510 6.469440 -0.000001 175.227000 18.668600 178.349000 -39.081100 -0.002282 -0.040193 -0.119674 0.179255 34.449500 -40.985400 0.000008 0.000006 5.216590 11.796800 -70.978600 -11.754300 -0.000006 -0.000006 -0.002692 -0.037066 -18.080400
0.000000 0.000000 0.000000 0.000000 0.000000 -0.000000 -0.981408 90.194000 -3.775510 89.238900 -2.658270 12.015700 15.735700 0.000005 -0.000001 88.160500 77.257500 -88.293600 8.984550 -0.406207 -0.000000 17.706100 -0.815008 -0.139874 16.377300 -0.000001 -0.000001 3.339740 -2.560220 2.081400 6.456720 -0.000001 -0.000000 -5.228690 -1.377600 0.995325 12.994200 -0.242716 4.980390 -91.009000 4.913110 -78.380000 5.348090 -0.000007 -0.000001 -50.436000 43.402100 -34.077300 24.328600 0.000019 0.000005 6.123130 16.386500 -20.819700 22.291600 -0.000001 0.000005 10.210100 5.253440 1.341750 12.994500 -0.242716 -4.980390 89.258900 10.030600 -85.752800 -5.348130 -0.000001 -0.000004 -59.492700 27.199800 -23.145300 -24.328900 0.000322 -0.000009 2.123180 3.994370 -28.035200 -22.291500 -0.000108 -0.000004 17.195000 5.390170 -2.620300 -2.192480 -6.469440 -0.000000 -173.933000 -11.218800 -2.768280 39.081100 -0.000007 -0.000012 -0.193589 0.276942 34.954800 40.985400 -0.000006 -0.000013 -0.361720 4.374790 -69.853500 11.754300 -0.000000 0.000003 -0.000124 -0.001239 -16.624900 -2.192510 6.469440 -0.000001 175.216000 18.625200 178.372000 -39.081100 -0.002282 -0.040193 -0.120320 0.180240 34.443200 -40.985400 0.000008 0.000006 5.153090 11.850500 -70.963000 -11.754300 -0.000006 -0.000006 -0.002656 -0.036651 -18.063500
0.000000 0.000000 0.000000 0.000000 0.000000 -0.000000 -0.982197 90.193200 -3.769060 89.215000 -2.722480 12.026100 15.735700 0.000005 -0.000001 88.054300 77.244900 -88.205800 8.984550 -0.406207 -0.000000 17.729700 -0.863793 -0.168958 16.377300 -0.000001 -0.000001 3.363690 -2.539530 2.053200 6.456720 -0.000001 -0.000000 -5.229320 -1.315740 0.924311 12.994200 -0.242716 4.980390 -91.027200 4.995090 -78.364400 5.348090 -0.000007 -0.000001 -50.341400 43.315600 -34.037500 24.328600 0.000019 0.000005 6.155130 16.520100 -20.769500 22.291600 -0.000001 0.000005 10.182500 5.250860 1.409930 12.994500 -0.242716 -4.980390 89.227300 10.012000 -85.564000 -5.348130 -0.000001 -0.000004 -59.062200 26.505000 -23.567000 -24.328900 0.000322 -0.000009 2.117530 3.642300 -30.213600 -22.291500 -0.000108 -0.000004 17.464700 5.394440 -2.757670 -2.192480 -6.469440 -0.000000 -173.895000 -11.246400 -2.743700 39.081100 -0.000007 -0.000012 -0.195146 0.279053 34.966000 40.985400 -0.000006 -0.000013 -0.372372 4.351620 -69.872200 11.754300 -0.000000 0.000003 -0.000121 -0.001208 -16.623700 -2.192510 6.469440 -0.000001 175.251000 18.599400 178.378000 -39.081100 -0.002282 -0.040193 -0.118121 0.176967 34.453200 -40.985400 0.000008 0.000006 5.300780 11.857700 -71.004900 -11.754300 -0.000006 -0.000006 -0.002727 -0.037479 -18.097200
0.000000 0.000000 0.000000 0.000000 0.000000 -0.000000 -0.975400 90.192600 -3.769040 89.208600 -2.798130 12.038000 15.735700 0.000005 -0.000001 87.981800 77.232600 -88.168900 8.984550 -0.406207 -0.000000 17.753100 -0.899419 -0.234475 16.377300 -0.000001 -0.000001 3.318030 -2.551940 2.015210 6.456720 -0.000001 -0.000000 -5.175160 -1.301970 0.943621 12.994200 -0.242716 4.980390 -91.046200 5.074690 -78.334500 5.348090 -0.000007 -0.000001 -50.286700 43.202500 -33.897800 24.328600 0.000019 0.000005 6.213460 16.595500 -20.866100 22.291600 -0.000001 0.000005 10.196800 5.248700 1.467220 12.994500 -0.242716 -4.980390 89.195200 9.989480 -85.370600 -5.348130 -0.000001 -0.000004 -58.578800 25.762900 -24.123900 -24.328900 0.000322 -0.000009 2.460140 3.873630 -32.465900 -22.291500 -0.000108 -0.000004 17.714600 5.399070 -2.907290 -2.192480 -6.469440 -0.000000 -173.891000 -11.235200 -2.722680 39.081100 -0.000007 -0.000012 -0.194965 0.278758 34.969500 40.985400 -0.000006 -0.000013 -0.389932 4.291540 -69.882300 11.754300 -0.000000 0.000003 -0.000117 -0.001177 -16.622600 -2.192510 6.469440 -0.000001 175.265000 18.534400 178.379000 -39.081100 -0.002282 -0.040193 -0.117884 0.176667 34.446300 -40.985400 0.000008 0.000006 5.237650 11.868900 -70.976500 -11.754300 -0.000006 -0.000006 -0.002644 -0.036501 -18.057400
0.000000 0.000000 0.000000 0.000000 0.000000 -0.000000 -0.975720 90.191000 -3.772070 89.205600 -2.846510 12.019500 15.735700 0.000005 -0.000001 87.898200 77.229300 -88.123000 8.984550 -0.406207 -0.000000 17.758000 -0.939495 -0.303795 16.377300 -0.000001 -0.000001 3.276640 -2.607680 1.978940 6.456720 -0.000001 -0.000000 -5.173950 -1.312110 0.932687 12.994200 -0.242716 4.980390 -91.062100 5.134500 -78.296100 5.348090 -0.000007 -0.000001 -50.127500 43.162800 -33.905800 24.328600 0.000019 0.000005 6.240550 16.681800 -20.853600 22.291600 -0.000001 0.000005 10.129800 5.247490 1.499050 12.994500 -0.242716 -4.980390 89.157100 10.003100 -85.158700 -5.348130 -0.000001 -0.000004 -57.938700 25.102700 -24.686900 -24.328900 0.000322 -0.000009 3.000910 4.287280 -35.049200 -22.291500 -0.000108 -0.000004 18.076300 5.400890 -2.966610 -2.192480 -6.469440 -0.000000 -173.887000 -11.281200 -2.746750 39.081100 -0.000007 -0.000012 -0.195575 0.279504 34.981700 40.985400 -0.000006 -0.000013 -0.394293 4.260720 -69.884200 11.754300 -0.000000 0.000003 -0.000126 -0.001251 -16.625300 -2.192510 6.469440 -0.000001 175.275000 18.520400 178.346000 -39.081100 -0.002282 -0.040193 -0.121480 0.181836 34.457200 -40.985400 0.000008 0.000006 5.260210 11.891000 -70.980600 -11.754300 -0.000006 -0.000006 -0.002591 -0.035889 -18.032600
0.000000 0.000000 0.000000 0.000000 0.000000 -0.000000 -0.977325 90.191700 -3.762070 89.186700 -2.869940 12.043200 15.735700 0.000005 -0.000001 87.822700 77.214900 -88.074600 8.984550 -0.406207 -0.000000 17.785300 -0.975936 -0.352072 16.377300 -0.000001 -0.000001 3.244370 -2.690870 1.919090 6.456720 -0.000001 -0.000000 -5.201220 -1.365630 0.848324 12.994200 -0.242716 4.980390 -91.080300 5.207770 -78.263700 5.348090 -0.000007 -0.000001 -50.049400 43.096000 -33.850200 24.328600 0.000019 0.000005 6.200010 16.574200 -20.848300 22.291600 -0.000001 0.000005 10.213200 5.249910 1.435370 12.994500 -0.242716 -4.980390 89.115200 10.002900 -84.918900 -5.348130 -0.000001 -0.000004 -57.428400 24.309000 -25.189200 -24.328900 0.000322 -0.000009 3.641460 4.699980 -37.843500 -22.291500 -0.000108 -0.000004 18.631900 5.401480 -2.985420 -2.192480 -6.469440 -0.000000 -173.849000 -11.336700 -2.705940 39.081100 -0.000007 -0.000012 -0.195139 0.278849 34.984800 40.985400 -0.000006 -0.000013 -0.390166 4.269590 -69.897800 11.754300 -0.000000 0.000003 -0.000120 -0.001201 -16.623500 -2.192510 6.469440 -0.000001 175.293000 18.525500 178.381000 -39.081100 -0.002282 -0.040193 -0.117989 0.176817 34.446800 -40.985400 0.000008 0.000006 5.301620 11.895000 -70.989600 -11.754300 -0.000006 -0.000006 -0.002505 -0.034869 -17.991100
0.000000 0.000000 0.000000 0.000000 0.000000 -0.000000 -0.977652 90.194600 -3.757640 89.188200 -2.838420 12.031300 15.735700 0.000005 -0.000001 87.714900 77.216700 -88.000300 8.984550 -0.406207 -0.000000 17.779600 -1.025940 -0.411400 16.377300 -0.000001 -0.000001 3.253090 -2.775990 1.802500 6.456720 -0.000001 -0.000000 -5.252890 -1.485640 0.765131 12.994200 -0.242716 4.980390 -91.087800 5.236720 -78.247800 5.348090 -0.000007 -0.000001 -49.997100 43.061200 -33.833500 24.328600 0.000019 0.000005 6.157360 16.506700 -20.791300 22.291600 -0.000001 0.000005 10.201000 5.249910 1.435080 12.994500 -0.242716 -4.980390 89.079900 10.012600 -84.722300 -5.348130 -0.000001 -0.000004 -57.182300 23.201300 -25.494600 -24.328900 0.000322 -0.000009 4.265670 4.954550 -40.821500 -22.291500 -0.000108 -0.000004 19.325400 5.411600 -3.318000 -2.192480 -6.469440 -0.000000 -173.859000 -11.283800 -2.715370 39.081100 -0.000007 -0.000012 -0.195281 0.279214 34.969100 40.985400 -0.000006 -0.000013 -0.396681 4.272340 -69.889000 11.754300 -0.000000 0.000003 -0.000112 -0.001136 -16.621000 -2.192510 6.469440 -0.000001 175.296000 18.537800 178.380000 -39.081100 -0.002282 -0.040193 -0.116567 0.174794 34.439200 -40.985400 0.000008 0.000006 5.348880 11.882200 -71.004000 -11.754300 -0.000006 -0.000006 -0.002734 -0.037556 -18.100400
